<svg xmlns="http://www.w3.org/2000/svg" width="400" height="120" viewBox="0 0 400 120">
  <defs>
    <style>
      .cls-1, .cls-10, .cls-11, .cls-12, .cls-13, .cls-14, .cls-5, .cls-6, .cls-7, .cls-8, .cls-9 {
        fill: #fff;
      }

      .cls-2 {
        fill: #231f20;
      }

      .cls-3, .cls-4 {
        fill: none;
        stroke-width: 5px;
      }

      .cls-12, .cls-13, .cls-14, .cls-3, .cls-4 {
        stroke: #fff;
      }

      .cls-3 {
        opacity: 0.75;
      }

      .cls-10, .cls-11, .cls-3, .cls-5, .cls-6, .cls-7, .cls-8, .cls-9 {
        isolation: isolate;
      }

      .cls-5 {
        opacity: 0.4;
      }

      .cls-6 {
        opacity: 0.6;
      }

      .cls-7 {
        opacity: 0.8;
      }

      .cls-8 {
        opacity: 0.9;
      }

      .cls-9 {
        opacity: 0.3;
      }

      .cls-10 {
        opacity: 0.5;
      }

      .cls-11 {
        opacity: 0.7;
      }

      .cls-12, .cls-13 {
        stroke-linecap: round;
      }

      .cls-12 {
        stroke-width: 1.5px;
      }

      .cls-13 {
        stroke-width: 2px;
      }

      .cls-15 {
        opacity: 0.73;
      }

      .cls-16 {
        fill: #050303;
        opacity: 0.6;
      }
    </style>
  </defs>
  <title>mejs-controls</title>
  <path class="cls-1" d="M143.2,3h14a2,2,0,0,1,2,2V15a2,2,0,0,1-2,2h-14a2,2,0,0,1-2-2V5A2,2,0,0,1,143.2,3Z" transform="translate(0 -0.36)"/>
  <path class="cls-2" d="M146.4,13.8a2.81,2.81,0,0,1-2.1-1,3.91,3.91,0,0,1,.1-4.8c.5-.6,2-1.7,4.6.2l-.6.8c-1.4-1-2.6-1.1-3.3-.3a3,3,0,0,0-.1,3.5c.7.9,1.9.8,3.4-.1l.5.9a5.28,5.28,0,0,1-2.5.8Zm7.5,0a2.81,2.81,0,0,1-2.1-1,3.91,3.91,0,0,1,.1-4.8c.5-.6,2-1.7,4.6.2L156,9c-1.4-1-2.6-1.1-3.3-.3a3,3,0,0,0-.1,3.5c.7.9,1.9.8,3.4-.1l.5.9a6.07,6.07,0,0,1-2.6.8Z" transform="translate(0 -0.36)"/>
  <path class="cls-1" d="M60.3,77a1,1,0,0,1,.6,1.4.9.9,0,0,1-.6.6L30,96.5c-1,.6-1.7.1-1.7-1v-35c0-1.1.8-1.5,1.7-1Z" transform="translate(0 -0.36)"/>
  <path class="cls-3" d="M2.5,79A37.5,37.5,0,1,1,40,116.5,37.51,37.51,0,0,1,2.5,79Z" transform="translate(0 -0.36)"/>
  <path class="cls-1" d="M140.3,77a1,1,0,0,1,.6,1.4.9.9,0,0,1-.6.6L110,96.5c-1,.6-1.7.1-1.7-1v-35c0-1.1.8-1.5,1.7-1Z" transform="translate(0 -0.36)"/>
  <path class="cls-4" d="M82.5,79A37.5,37.5,0,1,1,120,116.5,37.51,37.51,0,0,1,82.5,79Z" transform="translate(0 -0.36)"/>
  <circle class="cls-1" cx="201.9" cy="46.74" r="8.1"/>
  <circle class="cls-5" cx="233.9" cy="78.64" r="5"/>
  <circle class="cls-6" cx="201.9" cy="110.54" r="6"/>
  <circle class="cls-7" cx="170.1" cy="78.64" r="7"/>
  <circle class="cls-8" cx="178.2" cy="55.94" r="7.5"/>
  <circle class="cls-9" cx="226.3" cy="55.74" r="4.5"/>
  <circle class="cls-10" cx="225.8" cy="102.44" r="5.5"/>
  <circle class="cls-11" cx="178.2" cy="102.44" r="6.5"/>
  <path class="cls-1" d="M178,9.4a.81.81,0,0,1-.9.7c-.1,0-.2,0-.2-.1L172,8.2c-.5-.2-.6-.6-.1-.8l6.2-3.6c.5-.3.8-.1.7.5L178,9.4Z" transform="translate(0 -0.36)"/>
  <path class="cls-1" d="M16.5,8.5a.52.52,0,0,1,.2.8c-.1.1-.1.2-.2.2l-11.4,7c-.5.3-.8.1-.8-.5V2c0-.5.4-.8.8-.5Z" transform="translate(0 -0.36)"/>
  <path class="cls-1" d="M24,1h2.2a.94.94,0,0,1,1,1V16a.94.94,0,0,1-1,1H24a.94.94,0,0,1-1-1V2A1,1,0,0,1,24,1Zm9.8,0H36a.94.94,0,0,1,1,1V16a.94.94,0,0,1-1,1H33.8a.94.94,0,0,1-1-1V2A1,1,0,0,1,33.8,1Z" transform="translate(0 -0.36)"/>
  <path class="cls-1" d="M81,1.4a.94.94,0,0,1,1-1h5.4c.6,0,.7.3.3.7l-6,6c-.4.4-.7.3-.7-.3Zm0,15.8a.94.94,0,0,0,1,1h5.4c.6,0,.7-.3.3-.7l-6-6c-.4-.4-.7-.3-.7.3ZM98.8,1.4a.94.94,0,0,0-1-1H92.4c-.6,0-.7.3-.3.7l6,6c.4.4.7.3.7-.3Zm0,15.8a.94.94,0,0,1-1,1H92.4c-.6,0-.7-.3-.3-.7l6-6c.4-.4.7-.3.7.3Z" transform="translate(0 -0.36)"/>
  <path class="cls-1" d="M112.7,5a.94.94,0,0,0,1,1h4.1c.6,0,.7-.3.3-.7L113.4.6c-.4-.4-.7-.3-.7.3Zm-7.1,1a.94.94,0,0,0,1-1V.9c0-.6-.3-.7-.7-.3l-4.7,4.7c-.4.4-.3.7.3.7Zm1,7.1a.94.94,0,0,0-1-1h-4.1c-.6,0-.7.3-.3.7l4.7,4.7c.4.4.7.3.7-.3Zm7.1-1a.94.94,0,0,0-1,1v4.1c0,.5.3.7.7.3l4.7-4.7c.4-.4.3-.7-.3-.7Z" transform="translate(0 -0.36)"/>
  <path class="cls-1" d="M67,5.8a3,3,0,0,1-1.8.6H62a.94.94,0,0,0-1,1v5.7a.94.94,0,0,0,1,1h4.2c.3.2.5.4.8.6l3.5,2.6a.47.47,0,0,0,.8-.4V3.5a.47.47,0,0,0-.8-.4Z" transform="translate(0 -0.36)"/>
  <path class="cls-12" d="M73.9,2.5s3.9-.8,3.9,7.7S73.9,18,73.9,18" transform="translate(0 -0.36)"/>
  <path class="cls-12" d="M72.6,6.4s2.6-.4,2.6,3.8-2.6,3.9-2.6,3.9" transform="translate(0 -0.36)"/>
  <path class="cls-1" d="M47,5.8a3,3,0,0,1-1.8.6H42a.94.94,0,0,0-1,1v5.7a.94.94,0,0,0,1,1h4.2c.3.2.5.4.8.6l3.5,2.6a.47.47,0,0,0,.8-.4V3.5a.47.47,0,0,0-.8-.4Z" transform="translate(0 -0.36)"/>
  <path class="cls-13" d="M52.8,7l5.4,5.4m-5.4,0L58.2,7" transform="translate(0 -0.36)"/>
  <path class="cls-14" d="M128.7,8.6c-6.2-4.2-6.5,7.8,0,3.9m6.5-3.9c-6.2-4.2-6.5,7.8,0,3.9" transform="translate(0 -0.36)"/>
  <path class="cls-1" d="M122.2,3.4h15.7V16.5H122.2ZM120.8,2V17.7h18.3V2Z" transform="translate(0 -0.36)"/>
  <path class="cls-1" d="M178,9.4a.81.81,0,0,1-.9.7c-.1,0-.2,0-.2-.1L172,8.2c-.5-.2-.6-.6-.1-.8l6.2-3.6c.5-.3.8-.1.7.5L178,9.4Z" transform="translate(0 -0.36)"/>
  <path class="cls-1" d="M169.4,15.9a5.92,5.92,0,0,1-2.9-.7,5.77,5.77,0,0,1-3.2-5.2,6.21,6.21,0,0,1,6.3-6,6.15,6.15,0,0,1,5.6,4.1l.1-.1,2.1,1.1a8.1,8.1,0,0,0-9.1-6.9,8.24,8.24,0,0,0-7,7.9,8.06,8.06,0,0,0,4.3,7,10.21,10.21,0,0,0,3.8,1,8.24,8.24,0,0,0,6.6-3.3l-1.8-.9a7,7,0,0,1-4.8,2Z" transform="translate(0 -0.36)"/>
  <path class="cls-1" d="M203.4,3.2a1.54,1.54,0,0,1,1.5,1.5,1.5,1.5,0,1,1-3,0A1.47,1.47,0,0,1,203.4,3.2Zm5.1,0H217a1.47,1.47,0,0,1,1.5,1.5A1.54,1.54,0,0,1,217,6.2h-8.5A1.47,1.47,0,0,1,207,4.7,1.37,1.37,0,0,1,208.5,3.2Zm-5.1,5a1.5,1.5,0,1,1-1.5,1.5A1.47,1.47,0,0,1,203.4,8.2Zm5.1,0H217a1.47,1.47,0,0,1,1.5,1.5,1.54,1.54,0,0,1-1.5,1.5h-8.5A1.47,1.47,0,0,1,207,9.7,1.37,1.37,0,0,1,208.5,8.2Zm-5.1,5a1.5,1.5,0,1,1-1.5,1.5A1.47,1.47,0,0,1,203.4,13.2Zm5.1,0H217a1.47,1.47,0,0,1,1.5,1.5,1.54,1.54,0,0,1-1.5,1.5h-8.5a1.47,1.47,0,0,1-1.5-1.5A1.37,1.37,0,0,1,208.5,13.2Z" transform="translate(0 -0.36)"/>
  <g>
    <path class="cls-1" d="M254.5,8.49a.52.52,0,0,1,.2.8c-.1.1-.1.2-.2.2l-11.4,7c-.5.3-.8.1-.8-.5V2c0-.5.4-.8.8-.5Z" transform="translate(0 -0.36)"/>
    <path class="cls-1" d="M258.35.7h2.2a.94.94,0,0,1,1,1v14a.94.94,0,0,1-1,1h-2.2a.94.94,0,0,1-1-1V1.7A1,1,0,0,1,258.35.7Z" transform="translate(0 -0.36)"/>
  </g>
  <g>
    <path class="cls-1" d="M285.91,1.49c.4-.3.8,0,.8.5V16c0,.6-.3.8-.8.5l-11.4-7c-.1,0-.1-.1-.2-.2a.52.52,0,0,1,.2-.8Z" transform="translate(0 -0.36)"/>
    <path class="cls-1" d="M268.35.7h2.2a.94.94,0,0,1,1,1v14a.94.94,0,0,1-1,1h-2.2a.94.94,0,0,1-1-1V1.7A1,1,0,0,1,268.35.7Z" transform="translate(0 -0.36)"/>
  </g>
  <path class="cls-15" d="M198,9.4a.81.81,0,0,1-.9.7c-.1,0-.2,0-.2-.1L192,8.2c-.5-.2-.6-.6-.1-.8l6.2-3.6c.5-.3.8-.1.7.5L198,9.4Z" transform="translate(0 -0.36)"/>
  <path class="cls-15" d="M194.28,3.77A8.15,8.15,0,0,0,191.5,2.4a8,8,0,0,0-3.19-.21,8.28,8.28,0,0,0-6.41,5.06,8.1,8.1,0,0,0-.59,2.84,7.54,7.54,0,0,0,.31,2.12,7.94,7.94,0,0,0,.87,1.94,8.31,8.31,0,0,0,3.13,2.94,8.91,8.91,0,0,0,.92.4,9.7,9.7,0,0,0,.95.29q.48.12,1,.2t1,.11a8.28,8.28,0,0,0,1.9-.22,8.14,8.14,0,0,0,1.77-.64,8.25,8.25,0,0,0,1.58-1A8.59,8.59,0,0,0,196,14.8l-.45-.22-.45-.22-.45-.22-.45-.22a6.58,6.58,0,0,1-1,.82,7.15,7.15,0,0,1-1.17.63,7.05,7.05,0,0,1-1.28.41,6.45,6.45,0,0,1-1.34.14h0a7,7,0,0,1-.75,0,6.23,6.23,0,0,1-.74-.12,5.61,5.61,0,0,1-.72-.22,5.22,5.22,0,0,1-.69-.32,5.83,5.83,0,0,1-1.34-.93,5.73,5.73,0,0,1-1.64-2.67,5.92,5.92,0,0,1-.22-1.6,6.09,6.09,0,0,1,1.91-4.28,6.28,6.28,0,0,1,2-1.27A6.46,6.46,0,0,1,189.6,4,6.33,6.33,0,0,1,193,5.18a8.46,8.46,0,0,1,1,.95l.48-.25.48-.25.35-.23.35-.23" transform="translate(0 -0.36)"/>
  <path class="cls-16" d="M223.41,3.2a1.54,1.54,0,0,1,1.5,1.5,1.5,1.5,0,0,1-3,0A1.47,1.47,0,0,1,223.41,3.2Zm5.1,0H237a1.47,1.47,0,0,1,1.5,1.5A1.54,1.54,0,0,1,237,6.2h-8.5A1.47,1.47,0,0,1,227,4.7,1.37,1.37,0,0,1,228.51,3.2Zm-5.1,5a1.5,1.5,0,1,1-1.5,1.5A1.47,1.47,0,0,1,223.41,8.2Zm5.1,0H237a1.47,1.47,0,0,1,1.5,1.5,1.54,1.54,0,0,1-1.5,1.5h-8.5A1.47,1.47,0,0,1,227,9.7,1.37,1.37,0,0,1,228.51,8.2Zm-5.1,5a1.5,1.5,0,1,1-1.5,1.5A1.47,1.47,0,0,1,223.41,13.2Zm5.1,0H237a1.47,1.47,0,0,1,1.5,1.5,1.54,1.54,0,0,1-1.5,1.5h-8.5a1.47,1.47,0,0,1-1.5-1.5A1.37,1.37,0,0,1,228.51,13.2Z" transform="translate(0 -0.36)"/>
</svg>
